<?xml version="1.0" encoding="utf-8"?>
<!-- Generator: Adobe Illustrator 26.3.1, SVG Export Plug-In . SVG Version: 6.00 Build 0)  -->
<svg version="1.1" id="Layer_4" xmlns="http://www.w3.org/2000/svg" xmlns:xlink="http://www.w3.org/1999/xlink" x="0px" y="0px"
	 viewBox="0 0 133.92 41.76" style="enable-background:new 0 0 133.92 41.76;" xml:space="preserve">
<style type="text/css">
	.st0{fill:#FFFFFF;}
</style>
<rect y="37.15" class="st0" width="35.08" height="4.45"/>
<g>
	<path class="st0" d="M48.62,33.38c-2.03-1.05-3.6-2.53-4.72-4.45s-1.67-4.14-1.67-6.66v-9.75c0-2.52,0.56-4.74,1.67-6.66
		s2.69-3.4,4.72-4.45c2.03-1.05,4.38-1.57,7.05-1.57c2.66,0,5.01,0.52,7.05,1.57c2.03,1.05,3.61,2.53,4.72,4.45
		c1.11,1.92,1.67,4.14,1.67,6.66v9.75c0,2.52-0.56,4.74-1.67,6.66c-1.11,1.92-2.69,3.4-4.72,4.45c-2.03,1.05-4.38,1.57-7.05,1.57
		C53,34.96,50.65,34.43,48.62,33.38z M58.95,27.73c0.94-0.5,1.67-1.2,2.19-2.12c0.51-0.91,0.77-1.97,0.77-3.17V12.37
		c0-1.2-0.26-2.25-0.77-3.17c-0.51-0.91-1.24-1.62-2.19-2.12c-0.94-0.5-2.04-0.75-3.29-0.75c-1.25,0-2.34,0.25-3.29,0.75
		c-0.94,0.5-1.67,1.2-2.19,2.12c-0.51,0.91-0.77,1.97-0.77,3.17v10.08c0,1.2,0.26,2.26,0.77,3.17c0.51,0.92,1.24,1.62,2.19,2.12
		c0.94,0.5,2.04,0.75,3.29,0.75C56.91,28.48,58.01,28.23,58.95,27.73z"/>
	<path class="st0" d="M81.83,34.46c-1.68-0.33-3.26-0.82-4.73-1.46s-2.8-1.41-3.96-2.31l3.21-5.35c1.42,1.09,3.05,1.93,4.91,2.52
		c1.86,0.59,3.76,0.89,5.72,0.89c2.26,0,4.01-0.36,5.26-1.08c1.25-0.72,1.87-1.73,1.87-3.04v-0.02c0-0.92-0.28-1.64-0.83-2.18
		c-0.56-0.54-1.28-0.93-2.18-1.18c-0.89-0.25-2.04-0.48-3.44-0.69c-0.05-0.02-0.1-0.02-0.14-0.02s-0.09-0.01-0.14-0.02l-0.56-0.07
		c-2.46-0.36-4.5-0.82-6.12-1.36s-2.99-1.5-4.12-2.86s-1.7-3.3-1.7-5.81v-0.02c0-2.22,0.53-4.12,1.59-5.7
		c1.06-1.58,2.61-2.78,4.63-3.61c2.02-0.83,4.47-1.24,7.34-1.24c1.32,0,2.66,0.14,4.04,0.43c1.37,0.28,2.72,0.69,4.04,1.23
		c1.32,0.54,2.56,1.18,3.74,1.94l-2.93,5.49c-1.42-0.91-2.9-1.62-4.44-2.13c-1.54-0.5-3.02-0.76-4.44-0.76
		c-2.13,0-3.77,0.33-4.93,0.98c-1.16,0.65-1.75,1.57-1.75,2.76v0.02c0,0.99,0.3,1.78,0.91,2.35c0.61,0.58,1.36,1,2.25,1.27
		c0.89,0.27,2.15,0.55,3.77,0.85c0.07,0.02,0.13,0.03,0.2,0.04s0.13,0.02,0.2,0.04c0.1,0.02,0.2,0.04,0.29,0.06
		c0.09,0.02,0.19,0.04,0.29,0.06c2.33,0.43,4.27,0.94,5.83,1.55c1.56,0.61,2.86,1.58,3.91,2.93c1.05,1.35,1.57,3.19,1.57,5.52v0.05
		c0,2.19-0.55,4.07-1.64,5.63c-1.1,1.56-2.69,2.75-4.79,3.57c-2.1,0.82-4.63,1.23-7.58,1.23C85.23,34.96,83.51,34.79,81.83,34.46z"
		/>
	<path class="st0" d="M106.82,0.21h6.93V34.6h-6.93V0.21z M110.03,14.43h21.43v6.24h-21.43V14.43z M126.96,0.21h6.93V34.6h-6.93
		V0.21z"/>
</g>
<g>
	<path class="st0" d="M25.17,0.08h9.9V34.8h-6.83V7.84l0.27,1.53L20.9,30.93h-6.64L6.64,9.85l0.27-2.01V34.8H0.09V0.08h9.9l7.6,23.4
		L25.17,0.08z"/>
</g>
</svg>
